<svg id="visual" viewBox="0 0 960 540" width="960" height="540" xmlns="http://www.w3.org/2000/svg" xmlns:xlink="http://www.w3.org/1999/xlink" version="1.1"><rect x="0" y="0" width="960" height="540" fill="#140021"></rect><path d="M459 0L561 0L561 60L365 60L365 120L522 120L522 180L423 180L423 240L369 240L369 300L484 300L484 360L352 360L352 420L392 420L392 480L535 480L535 540L0 540L0 480L0 480L0 420L0 420L0 360L0 360L0 300L0 300L0 240L0 240L0 180L0 180L0 120L0 120L0 60L0 60L0 0L0 0Z" fill="#9900ff"></path><path d="M273 0L268 0L268 60L349 60L349 120L329 120L329 180L260 180L260 240L307 240L307 300L258 300L258 360L229 360L229 420L279 420L279 480L286 480L286 540L0 540L0 480L0 480L0 420L0 420L0 360L0 360L0 300L0 300L0 240L0 240L0 180L0 180L0 120L0 120L0 60L0 60L0 0L0 0Z" fill="#7700c6"></path><path d="M232 0L184 0L184 60L138 60L138 120L242 120L242 180L250 180L250 240L221 240L221 300L113 300L113 360L123 360L123 420L132 420L132 480L97 480L97 540L0 540L0 480L0 480L0 420L0 420L0 360L0 360L0 300L0 300L0 240L0 240L0 180L0 180L0 120L0 120L0 60L0 60L0 0L0 0Z" fill="#560090"></path></svg>